<svg width="26" height="38" viewBox="0 0 26 37.2432" fill="none" xmlns="http://www.w3.org/2000/svg">
  <g clip-path="url(#clip0)">
    <path d="M12.586 0L12.1548 6.84508L0 22.9996L12.586 0Z" fill="url(#paint0_linear)"/>
    <path d="M12.5864 0L22.716 4.51556L21.4227 18.9505L12.1553 6.84508L12.5864 0Z" fill="url(#paint1_linear)"/>
    <path d="M22.7153 4.51562L25.9997 24.4409L21.4219 18.9506L22.7153 4.51562Z" fill="url(#paint2_linear)"/>
    <path d="M26 24.4407L20.6592 37.2434L20.6729 36.9143L9.05762 37.218L21.4219 18.9504L26 24.4407Z" fill="url(#paint3_linear)"/>
    <path d="M12.1548 6.84521L21.4222 18.9507L9.05741 37.2179L0 22.9997L12.1548 6.84521Z" fill="url(#paint4_linear)"/>
  </g>
  <defs>
    <linearGradient id="paint0_linear" x1="6.29298" y1="22.9996" x2="-3.52482" y2="2.6618" gradientUnits="userSpaceOnUse">
      <stop stop-color="#D0A0B7"/>
      <stop offset="1" stop-color="#6A525D"/>
    </linearGradient>
    <linearGradient id="paint1_linear" x1="17.4357" y1="18.9505" x2="9.43818" y2="2.07917" gradientUnits="userSpaceOnUse">
      <stop stop-color="#D0A0B7"/>
      <stop offset="1" stop-color="#6A525D"/>
    </linearGradient>
    <linearGradient id="paint2_linear" x1="23.7108" y1="24.4409" x2="12.9532" y2="15.0849" gradientUnits="userSpaceOnUse">
      <stop stop-color="#D0A0B7"/>
      <stop offset="1" stop-color="#6A525D"/>
    </linearGradient>
    <linearGradient id="paint3_linear" x1="15.2399" y1="37.2179" x2="8.49408" y2="19.933" gradientUnits="userSpaceOnUse">
      <stop stop-color="#8D6477"/>
      <stop offset="0.600962" stop-color="#6A525D"/>
    </linearGradient>
    <linearGradient id="paint4_linear" x1="10.7111" y1="37.2179" x2="-0.166335" y2="8.17558" gradientUnits="userSpaceOnUse">
      <stop stop-color="#D0A0B7"/>
      <stop offset="1" stop-color="#6A525D"/>
    </linearGradient>
    <clipPath id="clip0">
      <rect width="26" height="37.2432" fill="white"/>
    </clipPath>
  </defs>
</svg>
